<svg width="55" height="55" viewBox="0 0 55 55" fill="none" xmlns="http://www.w3.org/2000/svg">
<path d="M27.5 53.8C42.0251 53.8 53.8 42.0251 53.8 27.5C53.8 12.9749 42.0251 1.2 27.5 1.2C12.9749 1.2 1.2 12.9749 1.2 27.5C1.2 42.0251 12.9749 53.8 27.5 53.8Z" fill="white" stroke="#E0E2E4" stroke-width="1.6"/>
<path d="M33.205 16.333C32.776 15.889 32.062 15.889 31.618 16.333C31.189 16.762 31.189 17.476 31.618 17.904L39.665 25.951H13.111C12.492 25.952 12 26.444 12 27.063C12 27.682 12.492 28.19 13.111 28.19H39.665L31.618 36.222C31.189 36.666 31.189 37.381 31.618 37.809C32.062 38.253 32.777 38.253 33.205 37.809L43.157 27.857C43.601 27.428 43.601 26.714 43.157 26.286L33.205 16.333Z" fill="#C4CDD5"/>
</svg>
