<svg width="24" height="24" viewBox="0 0 24 24" fill="none" xmlns="http://www.w3.org/2000/svg">
<path fill-rule="evenodd" clip-rule="evenodd" d="M16.8519 7.45962L9.65192 14.7115L6.92885 11.9885L5.90192 13.0154L9.13269 16.2462C9.27692 16.3904 9.47308 16.5058 9.64615 16.5058C9.81923 16.5058 10.0096 16.3904 10.1538 16.2519L17.8673 8.49808L16.8519 7.45962ZM12 0C5.37115 0 0 5.37115 0 12C0 18.6288 5.37115 24 12 24C18.6288 24 24 18.6288 24 12C24 5.37115 18.6288 0 12 0ZM12 23.0019C5.93654 23.0019 0.998077 18.0692 0.998077 12C0.998077 5.93654 5.93077 0.998077 12 0.998077C18.0635 0.998077 23.0019 5.93077 23.0019 12C23.0019 18.0635 18.0635 23.0019 12 23.0019Z" fill="#22243B"/>
</svg>
