<svg width="24" height="32" viewBox="0 0 24 32" fill="none" xmlns="http://www.w3.org/2000/svg">
<path fill-rule="evenodd" clip-rule="evenodd" d="M18 3C18 4.447 18 5.552 18 7C18 7.552 18.448 8 19 8C19.552 8 20 7.552 20 7C20 5.552 20 4.447 20 3C20 2.448 19.552 2 19 2C18.448 2 18 2.448 18 3Z" fill="#EB9166"/>
<path fill-rule="evenodd" clip-rule="evenodd" d="M6 7C6 5.552 6 4.447 6 3C6 2.448 5.552 2 5 2C4.448 2 4 2.448 4 3C4 4.447 4 5.552 4 7C4 7.552 4.448 8 5 8C5.552 8 6 7.552 6 7Z" fill="#EB9166"/>
<path fill-rule="evenodd" clip-rule="evenodd" d="M20 27C20 25.552 20 24.448 20 23C20 22.448 19.552 22 19 22C18.448 22 18 22.448 18 23C18 24.447 18 25.552 18 27C18 27.552 18.448 28 19 28C19.552 28 20 27.552 20 27Z" fill="#EB9166"/>
<path fill-rule="evenodd" clip-rule="evenodd" d="M4 23C4 24.447 4 25.552 4 27C4 27.552 4.448 28 5 28C5.552 28 6 27.552 6 27C6 25.552 6 24.447 6 23C6 22.448 5.552 22 5 22C4.448 22 4 22.448 4 23Z" fill="#EB9166"/>
<path fill-rule="evenodd" clip-rule="evenodd" d="M18 13C18 14.447 18 15.552 18 17C18 17.552 18.448 18 19 18C19.552 18 20 17.552 20 17C20 15.552 20 14.447 20 13C20 12.448 19.552 12 19 12C18.448 12 18 12.448 18 13Z" fill="#EB9166"/>
<path fill-rule="evenodd" clip-rule="evenodd" d="M6 17C6 15.552 6 14.447 6 13C6 12.448 5.552 12 5 12C4.448 12 4 12.448 4 13C4 14.447 4 15.552 4 17C4 17.552 4.448 18 5 18C5.552 18 6 17.552 6 17Z" fill="#EB9166"/>
<path fill-rule="evenodd" clip-rule="evenodd" d="M6 22H18V18H6V22ZM19 16H5C4.737 16 4.479 16.107 4.293 16.293C4.107 16.479 4 16.737 4 17V23C4 23.263 4.107 23.521 4.293 23.707C4.479 23.893 4.737 24 5 24H19C19.263 24 19.521 23.893 19.707 23.707C19.893 23.521 20 23.263 20 23V17C20 16.737 19.893 16.479 19.707 16.293C19.521 16.107 19.263 16 19 16Z" fill="#745747"/>
<path fill-rule="evenodd" clip-rule="evenodd" d="M6 12H18V8H6V12ZM19 6H5C4.737 6 4.479 6.107 4.293 6.293C4.107 6.479 4 6.737 4 7V13C4 13.263 4.107 13.521 4.293 13.707C4.479 13.893 4.737 14 5 14H19C19.263 14 19.521 13.893 19.707 13.707C19.893 13.521 20 13.263 20 13V7C20 6.737 19.893 6.479 19.707 6.293C19.521 6.107 19.263 6 19 6Z" fill="#745747"/>
<path fill-rule="evenodd" clip-rule="evenodd" d="M22 30H20V27C20 26.737 19.893 26.479 19.707 26.293C19.521 26.107 19.263 26 19 26H5C4.737 26 4.479 26.107 4.293 26.293C4.107 26.479 4 26.737 4 27V30H2V2H4V3C4 3.263 4.107 3.521 4.293 3.707C4.479 3.893 4.737 4 5 4H19C19.263 4 19.521 3.893 19.707 3.707C19.893 3.521 20 3.263 20 3V2H22V30ZM23.707 0.293C23.521 0.107 23.263 0 23 0H19C18.737 0 18.479 0.107 18.293 0.293C18.107 0.479 18 0.737 18 1V2H6V1C6 0.737 5.893 0.479 5.707 0.293C5.521 0.107 5.263 0 5 0H1C0.737 0 0.479 0.107 0.293 0.293C0.107 0.479 0 0.737 0 1V31C0 31.263 0.107 31.521 0.293 31.707C0.479 31.893 0.737 32 1 32H5C5.263 32 5.521 31.893 5.707 31.707C5.893 31.521 6 31.263 6 31V28H18V31C18 31.263 18.107 31.521 18.293 31.707C18.479 31.893 18.737 32 19 32H23C23.263 32 23.521 31.893 23.707 31.707C23.893 31.521 24 31.263 24 31V1C24 0.737 23.893 0.479 23.707 0.293Z" fill="#745747"/>
</svg>
