<svg width="36" height="39" viewBox="0 0 36 39" fill="none" xmlns="http://www.w3.org/2000/svg">
<path fill-rule="evenodd" clip-rule="evenodd" d="M34.8 28.8H1.2C0.5376 28.8 0 29.3376 0 30C0 30.6624 0.5376 31.2 1.2 31.2H34.8C35.4624 31.2 36 30.6624 36 30C36 29.3376 35.4624 28.8 34.8 28.8Z" fill="#EB9166"/>
<path fill-rule="evenodd" clip-rule="evenodd" d="M1.2 24H34.8C35.4624 24 36 23.4624 36 22.8C36 22.1376 35.4624 21.6 34.8 21.6H1.2C0.5376 21.6 0 22.1376 0 22.8C0 23.4624 0.5376 24 1.2 24Z" fill="#EB9166"/>
<path fill-rule="evenodd" clip-rule="evenodd" d="M9.7272 1.73646L16.8 15.8833V32.4001C16.8 33.0625 17.3376 33.6001 18 33.6001C18.6624 33.6001 19.2 33.0625 19.2 32.4001V15.6001L19.074 15.0637L11.874 0.663657C11.5776 0.070857 10.8564 -0.169143 10.2636 0.127257C9.6708 0.423657 9.4308 1.14366 9.7272 1.73646Z" fill="#EB9166"/>
<path fill-rule="evenodd" clip-rule="evenodd" d="M19.2 32.4001V15.8833L26.274 1.73646C26.5704 1.14366 26.3292 0.423657 25.7364 0.127257C25.1436 -0.169143 24.4236 0.070857 24.1272 0.663657L16.9272 15.0637L16.8 15.6001V32.4001C16.8 33.0625 17.3376 33.6001 18 33.6001C18.6624 33.6001 19.2 33.0625 19.2 32.4001Z" fill="#EB9166"/>
<path fill-rule="evenodd" clip-rule="evenodd" d="M33.6 34.8C33.5988 35.4516 33.0528 35.9988 32.4 36H22.8C20.8284 35.9964 19.2036 34.3716 19.2 32.4C19.2 32.0844 19.0716 31.7748 18.8484 31.5516C18.6252 31.3284 18.3156 31.2 18 31.2C17.6844 31.2 17.3748 31.3284 17.1516 31.5516C16.9284 31.7748 16.8 32.0844 16.8 32.4C16.7964 34.3716 15.1716 35.9964 13.2 36H3.6C2.9484 35.9988 2.4012 35.4516 2.4 34.8V18C2.4012 17.3472 2.9484 16.8012 3.6 16.8C5.5884 16.7952 7.1952 15.1884 7.2 13.2V3.6C7.2012 2.9472 7.7484 2.4012 8.4 2.4H27.6C28.2528 2.4012 28.7988 2.9472 28.8 3.6V13.2C28.8048 15.1884 30.4116 16.7952 32.4 16.8C33.0528 16.8012 33.5988 17.3472 33.6 18V34.8ZM32.4 14.4C31.7484 14.3988 31.2012 13.8516 31.2 13.2V3.6C31.1952 1.6116 29.5884 0.0048 27.6 0H8.4C6.4116 0.0048 4.8048 1.6116 4.8 3.6V13.2C4.7988 13.8516 4.2528 14.3988 3.6 14.4C1.6116 14.4048 0.0048 16.0116 0 18V34.8C0.0048 36.7884 1.6116 38.3952 3.6 38.4H13.2C15.1704 38.3976 16.9056 37.4304 18 35.9592C19.0944 37.4304 20.8296 38.3976 22.8 38.4H32.4C34.3884 38.3952 35.9952 36.7884 36 34.8V18C35.9952 16.0116 34.3884 14.4048 32.4 14.4Z" fill="#745747"/>
</svg>
