<svg width="25" height="25" viewBox="0 0 25 25" fill="none" xmlns="http://www.w3.org/2000/svg">
<path fill-rule="evenodd" clip-rule="evenodd" d="M21.2121 3.78786H21.9697C21.9705 3.37574 21.8038 2.98862 21.528 2.71437C21.2545 2.43862 20.8667 2.27195 20.4545 2.27271C20.0424 2.27195 19.6553 2.43862 19.3811 2.71437C19.1053 2.98862 18.9386 3.37574 18.9394 3.78786C18.9386 4.19998 19.1053 4.5871 19.3811 4.86134C19.6553 5.1371 20.0424 5.30377 20.4545 5.30301C20.8667 5.30377 21.2545 5.1371 21.528 4.86134C21.8038 4.5871 21.9705 4.19998 21.9697 3.78786H20.4545H21.2121Z" fill="#EB9166"/>
<path fill-rule="evenodd" clip-rule="evenodd" d="M16.7174 11.8734L12.4447 7.6007C12.1492 7.30449 11.6697 7.30449 11.3735 7.6007C11.078 7.89615 11.078 8.37646 11.3735 8.67191L15.6462 12.9446C15.9424 13.2409 16.422 13.2409 16.7174 12.9446C17.0136 12.6492 17.0136 12.1689 16.7174 11.8734Z" fill="#EB9166"/>
<path fill-rule="evenodd" clip-rule="evenodd" d="M5.63108 7.97501L16.3432 18.6871C16.6394 18.9833 17.119 18.9833 17.4144 18.6871C17.7106 18.3917 17.7106 17.9114 17.4144 17.6159L6.70229 6.9038C6.40683 6.60759 5.92729 6.60759 5.63108 6.9038C5.33562 7.19925 5.33562 7.67956 5.63108 7.97501Z" fill="#EB9166"/>
<path fill-rule="evenodd" clip-rule="evenodd" d="M11.9091 7.37878H11.8939C11.5879 7.37878 11.3114 7.56363 11.1939 7.84621C11.0773 8.12954 11.1417 8.4553 11.3583 8.67197L15.6462 12.9598C15.8629 13.1765 16.1886 13.2417 16.472 13.1242C16.7546 13.0068 16.9394 12.7303 16.9394 12.4242V12.4091C16.9394 11.9909 16.6 11.6515 16.1818 11.6515C15.7636 11.6515 15.4243 11.9909 15.4243 12.4091V12.4242H16.1818L16.7174 11.8886L12.4296 7.60075L11.8939 8.13636V8.89394H11.9091C12.3273 8.89394 12.6667 8.55454 12.6667 8.13636C12.6667 7.71818 12.3273 7.37878 11.9091 7.37878Z" fill="#EB9166"/>
<path fill-rule="evenodd" clip-rule="evenodd" d="M21.2121 3.78786H20.4545H21.9697C21.9705 3.37574 21.8038 2.98862 21.528 2.71437C21.2545 2.43862 20.8667 2.27195 20.4545 2.27271C20.0424 2.27195 19.6553 2.43862 19.3811 2.71437C19.1053 2.98862 18.9386 3.37574 18.9394 3.78786C18.9386 4.19998 19.1053 4.5871 19.3811 4.86134C19.6553 5.1371 20.0424 5.30377 20.4545 5.30301C20.8667 5.30377 21.2545 5.1371 21.528 4.86134C21.8038 4.5871 21.9705 4.19998 21.9697 3.78786H21.2121Z" fill="#EB9166"/>
<path fill-rule="evenodd" clip-rule="evenodd" d="M11.5856 17.6462L8.69165 20.5402C8.3962 20.8356 8.3962 21.3159 8.69165 21.6114C8.98787 21.9076 9.46741 21.9076 9.76287 21.6114L12.6568 18.7174C12.953 18.422 12.953 17.9417 12.6568 17.6462C12.3614 17.35 11.8818 17.35 11.5856 17.6462Z" fill="#EB9166"/>
<path fill-rule="evenodd" clip-rule="evenodd" d="M8.55531 16.1311L6.41895 18.2675C6.12349 18.5629 6.12349 19.0432 6.41895 19.3387C6.71516 19.6349 7.19471 19.6349 7.49016 19.3387L9.62652 17.2023C9.92274 16.9069 9.92274 16.4265 9.62652 16.1311C9.33107 15.8349 8.85152 15.8349 8.55531 16.1311Z" fill="#EB9166"/>
<path fill-rule="evenodd" clip-rule="evenodd" d="M22.0735 5.4454L22.0705 5.44919L15.6462 11.8734C15.5053 12.0143 15.4243 12.209 15.4243 12.409V12.4242C15.4243 12.6265 15.5046 12.8189 15.6477 12.9613L17.7977 15.0962C17.947 15.2462 18.0182 15.4333 18.019 15.6303C18.0182 15.8272 17.9462 16.0227 17.7909 16.1833L16.3462 17.6128L11.5833 22.3757L1.94244 12.7348L6.70228 7.97495L6.70531 7.97192L8.13562 6.52646C8.29471 6.37192 8.49092 6.29995 8.68789 6.29919C8.88486 6.29995 9.07198 6.37116 9.22198 6.5204L11.3561 8.6704C11.4993 8.81359 11.6917 8.89389 11.894 8.89389H11.9091C12.1114 8.89389 12.3015 8.8151 12.4447 8.67192L18.869 2.24768L18.8727 2.24389C19.319 1.79237 19.8917 1.57268 20.4697 1.57192C21.0477 1.57268 21.6205 1.79237 22.0667 2.24389L22.0735 2.25071C22.525 2.69768 22.7455 3.26965 22.7462 3.84843C22.7455 4.42646 22.5258 4.99919 22.0735 5.4454ZM23.1455 1.17949C23.144 1.17874 23.1424 1.17798 23.1417 1.17646C23.1402 1.17571 23.1394 1.17419 23.1386 1.17268L23.1379 1.17343C22.4038 0.432525 21.4341 0.0552521 20.4697 0.0567672C19.5023 0.0552521 18.5296 0.43404 17.7947 1.17949L17.7977 1.17646L11.9038 7.0704L10.2955 5.45071L10.2932 5.44919C9.85228 5.00752 9.26668 4.78328 8.68789 4.78404C8.10834 4.78328 7.5235 5.00677 7.07728 5.44237L7.06744 5.45146L5.6288 6.90601L0.335617 12.1992C0.194708 12.3401 0.113647 12.5356 0.113647 12.7348C0.113647 12.934 0.194708 13.1295 0.335617 13.2704L11.0477 23.9825C11.1886 24.1234 11.3841 24.2045 11.5833 24.2045C11.7833 24.2045 11.978 24.1234 12.119 23.9825L17.4144 18.6871L17.4121 18.6901L18.8667 17.2507L18.8758 17.2409C19.3114 16.7946 19.5349 16.2098 19.5341 15.6303C19.5356 15.0515 19.3106 14.4651 18.8689 14.0249L18.8674 14.0227L17.2477 12.4143L23.1386 6.52343C23.8841 5.78859 24.2621 4.81586 24.2614 3.84843C24.2621 2.88404 23.8856 1.91434 23.1447 1.18025L23.1455 1.17949Z" fill="#745747"/>
</svg>
