<svg width="42" height="42" viewBox="0 0 42 42" fill="none" xmlns="http://www.w3.org/2000/svg">
<path fill-rule="evenodd" clip-rule="evenodd" d="M21 0C9.40312 0 0 9.40312 0 21C0 32.5969 9.40312 42 21 42C32.5969 42 42 32.5969 42 21C42 9.40312 32.5969 0 21 0ZM37.7156 14.2969L31.95 16.0688C31.3594 14.7563 30.5344 13.5562 29.4844 12.5063C28.4344 11.4563 27.2344 10.6313 25.9219 10.0406L27.6938 4.275C29.925 5.16563 31.9688 6.51562 33.7219 8.25937C35.475 10.0219 36.825 12.0656 37.7156 14.2969ZM21 30C16.0312 30 12 25.9688 12 21C12 16.0312 16.0312 12 21 12C25.9688 12 30 16.0312 30 21C30 25.9688 25.9688 30 21 30ZM8.26875 8.26875C10.0219 6.51562 12.0656 5.175 14.2969 4.28438L16.0688 10.05C14.7563 10.6406 13.5562 11.4656 12.5063 12.5156C11.4563 13.5656 10.6313 14.7656 10.0406 16.0781L4.275 14.3063C5.175 12.0656 6.525 10.0219 8.26875 8.26875ZM4.28438 27.7031L10.05 25.9312C10.6406 27.2437 11.4656 28.4438 12.5156 29.4937C13.5656 30.5437 14.7656 31.3687 16.0781 31.9594L14.3063 37.725C12.075 36.8344 10.0312 35.4844 8.27813 33.7406C6.525 31.9781 5.175 29.9344 4.28438 27.7031ZM33.7313 33.7313C31.9781 35.4844 29.9344 36.825 27.7031 37.7156L25.9312 31.95C27.2437 31.3594 28.4438 30.5344 29.4937 29.4844C30.5437 28.4344 31.3687 27.2344 31.9594 25.9219L37.725 27.6938C36.825 29.9344 35.475 31.9781 33.7313 33.7313Z" fill="#E2474B"/>
</svg>
