<svg width="40" height="35" viewBox="0 0 40 35" fill="none" xmlns="http://www.w3.org/2000/svg">
<path fill-rule="evenodd" clip-rule="evenodd" d="M24.2365 9.44636C23.846 9.05584 23.846 8.42268 24.2365 8.03215L26.1499 6.1188C26.5404 5.72828 27.1736 5.72828 27.5641 6.1188L32.805 11.3597C33.1955 11.7502 33.1955 12.3834 32.805 12.7739L30.8916 14.6873C30.5011 15.0778 29.868 15.0778 29.4774 14.6873L24.2365 9.44636Z" fill="#EB9166"/>
<path fill-rule="evenodd" clip-rule="evenodd" d="M17.8247 9.67296L27.8071 19.6553C28.2671 20.1153 29.0118 20.1153 29.4706 19.6553C29.9306 19.1965 29.9306 18.4506 29.4706 17.9918L19.4882 8.00943C19.0294 7.54943 18.2835 7.54943 17.8247 8.00943C17.3647 8.46825 17.3647 9.21296 17.8247 9.67296Z" fill="#EB9166"/>
<path fill-rule="evenodd" clip-rule="evenodd" d="M36.1329 13.0035L31.4894 17.647H28.6353C28.4 17.647 28.1776 17.7141 27.9823 17.8447L8.83175 30.627L3.68705 25.4823L26.1494 3.01996C26.3823 2.7882 26.6741 2.67761 26.9765 2.67643C27.2788 2.67761 27.5706 2.7882 27.8035 3.01996L36.1341 11.327C36.3612 11.5553 36.4753 11.8529 36.4765 12.1647C36.4753 12.4753 36.3612 12.7741 36.1329 13.0023L36.9647 13.8353L36.1329 13.0035ZM29.4659 1.35525C28.7823 0.670548 27.8741 0.322313 26.9765 0.323489C26.0788 0.322313 25.1706 0.670548 24.4859 1.35643L1.19175 24.6505C0.972928 24.8694 0.847046 25.1729 0.847046 25.4823C0.847046 25.7917 0.972928 26.0953 1.19175 26.3141L7.85058 32.9729C8.24705 33.3694 8.8694 33.4305 9.33528 33.1188L28.9918 20H31.9765C32.2918 20 32.587 19.8776 32.8094 19.6553L37.7965 14.667C38.4859 13.9788 38.8306 13.0647 38.8294 12.1647C38.8306 11.2647 38.4859 10.3505 37.7965 9.66231L29.4659 1.35525Z" fill="#745747"/>
</svg>
