<svg width="33" height="33" viewBox="0 0 33 33" fill="none" xmlns="http://www.w3.org/2000/svg">
<path fill-rule="evenodd" clip-rule="evenodd" d="M20.552 17.309L14.895 11.652C14.504 11.261 13.871 11.261 13.481 11.652C13.09 12.043 13.09 12.676 13.481 13.066L19.137 18.723C19.528 19.114 20.161 19.114 20.552 18.723C20.942 18.333 20.942 17.699 20.552 17.309Z" fill="#EB9166"/>
<path fill-rule="evenodd" clip-rule="evenodd" d="M13.481 13.066L19.137 18.723C19.528 19.114 20.161 19.114 20.552 18.723C20.942 18.333 20.942 17.699 20.552 17.309L14.895 11.652C14.504 11.261 13.871 11.261 13.481 11.652C13.09 12.043 13.09 12.676 13.481 13.066Z" fill="#EB9166"/>
<path fill-rule="evenodd" clip-rule="evenodd" d="M7.82401 14.4801L12.773 19.4301C13.164 19.8211 13.797 19.8211 14.188 19.4301C14.578 19.0401 14.578 18.4071 14.188 18.0161L9.23801 13.0661C8.84701 12.6761 8.21401 12.6761 7.82401 13.0661C7.43301 13.4571 7.43301 14.0901 7.82401 14.4801Z" fill="#EB9166"/>
<path fill-rule="evenodd" clip-rule="evenodd" d="M10.652 27.208L4.28801 20.844C3.89801 20.454 3.26501 20.454 2.87401 20.844C2.48401 21.235 2.48401 21.868 2.87401 22.259L9.23801 28.623C9.62901 29.013 10.262 29.013 10.652 28.623C11.043 28.232 11.043 27.599 10.652 27.208Z" fill="#EB9166"/>
<path fill-rule="evenodd" clip-rule="evenodd" d="M21.621 11.793L27.707 5.70701C28.098 5.31701 28.098 4.68301 27.707 4.29301C27.317 3.90201 26.684 3.90201 26.293 4.29301L20.207 10.379C19.817 10.769 19.817 11.402 20.207 11.793C20.598 12.183 21.231 12.183 21.621 11.793Z" fill="#EB9166"/>
<path fill-rule="evenodd" clip-rule="evenodd" d="M29.333 7.11301L19.133 17.313C18.944 17.502 18.838 17.76 18.84 18.027C18.842 18.294 18.952 18.551 19.143 18.737L19.845 19.419C20.031 19.61 20.129 19.869 20.13 20.14C20.129 20.411 20.031 20.67 19.844 20.862L12.061 28.627L10.647 27.213C10.257 26.822 9.62301 26.822 9.23301 27.213L7.11301 29.333C6.52701 29.919 5.76301 30.209 4.99001 30.21C4.21801 30.209 3.45601 29.919 2.87001 29.335C2.29401 28.75 2.00601 27.985 2.00501 27.21C2.00601 26.433 2.29501 25.667 2.87201 25.082L2.86701 25.087L4.98701 22.967C5.17301 22.781 5.28001 22.523 5.28001 22.26C5.28001 21.996 5.17301 21.739 4.98701 21.552L4.28701 20.853C4.09301 20.658 3.99601 20.405 3.99501 20.14C3.99601 19.875 4.09301 19.621 4.28701 19.427L9.24601 14.489L11.367 12.367L11.377 12.358C11.558 12.171 11.801 12.076 12.063 12.075C12.323 12.076 12.578 12.172 12.773 12.367L13.473 13.067C13.864 13.458 14.497 13.457 14.887 13.067L25.083 2.87101C25.668 2.29401 26.434 2.00601 27.21 2.00501C27.986 2.00601 28.75 2.29401 29.335 2.87001C29.91 3.44801 30.199 4.17501 30.201 4.92501L30.2 4.98501V5.01801L30.201 5.07301C30.2 5.80101 29.91 6.53401 29.333 7.11301ZM3.58101 13.066C3.97401 12.674 4.48001 12.481 4.99501 12.48C5.51001 12.481 6.01601 12.674 6.41001 13.066L7.12301 13.78L4.28901 16.603C4.28901 16.602 4.28901 16.602 4.28801 16.602L3.58101 15.895C3.18901 15.501 2.99601 14.995 2.99501 14.48C2.99601 13.965 3.18901 13.459 3.58101 13.066ZM32.201 5.07301L32.2 5.00101L32.201 4.92501C32.202 3.64901 31.693 2.39701 30.747 1.45301L30.743 1.44801C29.768 0.486006 28.484 0.00400644 27.21 0.00500644C25.937 0.00400644 24.653 0.486006 23.677 1.44801L23.673 1.45301L14.179 10.946C13.595 10.366 12.824 10.074 12.063 10.075C11.303 10.074 10.531 10.366 9.95401 10.954L9.95301 10.953L8.53901 12.367L7.82401 11.652C7.04501 10.873 6.01601 10.479 4.99501 10.48C3.97501 10.479 2.94501 10.873 2.16701 11.652C1.38801 12.43 0.994006 13.46 0.995006 14.48C0.994006 15.501 1.38801 16.53 2.16701 17.309L2.87201 18.014C2.28701 18.601 1.99401 19.376 1.99501 20.14C1.99401 20.902 2.28601 21.674 2.86701 22.259L1.45301 23.673L1.44901 23.677C0.486006 24.652 0.00400644 25.936 0.00500644 27.21C0.00400644 28.483 0.486006 29.767 1.44901 30.742L1.45301 30.747C2.42701 31.721 3.71301 32.211 4.99001 32.21C6.26701 32.211 7.55301 31.721 8.52701 30.747L9.94001 29.334L11.353 30.747C11.744 31.138 12.375 31.138 12.766 30.748L21.266 22.268L21.276 22.258C21.849 21.669 22.131 20.899 22.13 20.14C22.131 19.381 21.849 18.611 21.277 18.022L21.264 18.01L30.747 8.52701L30.04 7.82001L30.747 8.52701C31.692 7.58201 32.201 6.33601 32.201 5.07301Z" fill="#745747"/>
</svg>
