<svg width="27" height="19" viewBox="0 0 27 19" fill="none" xmlns="http://www.w3.org/2000/svg">
<path fill-rule="evenodd" clip-rule="evenodd" d="M16.875 9.28124V2.81812C16.875 2.35237 16.497 1.97437 16.0312 1.97437C15.5655 1.97437 15.1875 2.35237 15.1875 2.81812V9.28124C15.1875 9.74699 15.5655 10.125 16.0312 10.125C16.497 10.125 16.875 9.74699 16.875 9.28124Z" fill="#EB9166"/>
<path fill-rule="evenodd" clip-rule="evenodd" d="M11.8125 9.28124V2.81812C11.8125 2.35237 11.4345 1.97437 10.9688 1.97437C10.503 1.97437 10.125 2.35237 10.125 2.81812V9.28124C10.125 9.74699 10.503 10.125 10.9688 10.125C11.4345 10.125 11.8125 9.74699 11.8125 9.28124Z" fill="#EB9166"/>
<path fill-rule="evenodd" clip-rule="evenodd" d="M2.53125 15.1875H24.4688C24.9345 15.1875 25.3125 14.8095 25.3125 14.3438C25.3125 13.878 24.9345 13.5 24.4688 13.5H2.53125C2.0655 13.5 1.6875 13.878 1.6875 14.3438C1.6875 14.8095 2.0655 15.1875 2.53125 15.1875Z" fill="#EB9166"/>
<path fill-rule="evenodd" clip-rule="evenodd" d="M24.4688 16.875H2.53125C2.07309 16.8742 1.68834 16.4894 1.6875 16.0312C1.68834 15.5723 2.07309 15.1883 2.53125 15.1875C2.75316 15.1875 2.97084 15.0972 3.12778 14.9403C3.28472 14.7833 3.375 14.5657 3.375 14.3438V13.5C3.37331 8.71762 6.69516 4.698 11.1637 3.63909C11.5425 3.54881 11.8125 3.20794 11.8125 2.81813V2.53125C11.8133 2.07225 12.1981 1.68834 12.6562 1.6875H14.3438C14.8027 1.68834 15.1867 2.07225 15.1875 2.53125V2.81813C15.1875 3.20794 15.4575 3.54881 15.8372 3.63909C20.3048 4.698 23.6267 8.71762 23.625 13.5V14.3438C23.625 14.5657 23.7153 14.7833 23.8722 14.9403C24.0292 15.0972 24.2468 15.1875 24.4688 15.1875C24.9277 15.1883 25.3117 15.5723 25.3125 16.0312C25.3117 16.4894 24.9277 16.8742 24.4688 16.875ZM25.3125 13.6561V13.5C25.3108 8.14219 21.7418 3.61631 16.8379 2.17013C16.659 0.945 15.6178 0.00253125 14.3438 0H12.6562C11.3822 0.00253125 10.341 0.945 10.1621 2.17013C5.25825 3.61631 1.68919 8.14219 1.6875 13.5V13.6561C0.707906 14.0054 0.00253125 14.931 0 16.0312C0.003375 17.4293 1.13316 18.5591 2.53125 18.5625H24.4688C25.8668 18.5591 26.9966 17.4293 27 16.0312C26.9975 14.931 26.2929 14.0054 25.3125 13.6561Z" fill="#745747"/>
</svg>
