<svg width="39" height="39" viewBox="0 0 39 39" fill="none" xmlns="http://www.w3.org/2000/svg">
<path fill-rule="evenodd" clip-rule="evenodd" d="M26.2777 17.5347L25.7388 17.5678C24.6314 17.5654 23.5347 17.1577 22.6661 16.2926C21.801 15.424 21.3933 14.3272 21.3909 13.2199L21.424 12.681C21.5032 12.0333 21.0434 11.4436 20.3958 11.3632C19.7482 11.2841 19.1573 11.7438 19.0781 12.3914C19.0438 12.6668 19.0273 12.9433 19.0273 13.2199C19.0249 14.9158 19.6713 16.6424 20.995 17.9637C22.3163 19.2873 24.0429 19.9338 25.7388 19.9314C26.0153 19.9314 26.2919 19.9149 26.5661 19.8806C27.2137 19.8014 27.6746 19.2117 27.5954 18.5641C27.5151 17.9164 26.9253 17.4555 26.2777 17.5347Z" fill="#EB9166"/>
<path fill-rule="evenodd" clip-rule="evenodd" d="M34.3661 2.92149L25.3169 11.9707C24.8548 12.4316 24.8548 13.1809 25.3169 13.6418C25.779 14.1039 26.5271 14.1039 26.988 13.6418L36.0372 4.59258C36.4993 4.13167 36.4993 3.38358 36.0372 2.92149C35.5763 2.46058 34.827 2.46058 34.3661 2.92149Z" fill="#EB9166"/>
<path fill-rule="evenodd" clip-rule="evenodd" d="M24.102 12.7129L20.7586 16.0562C20.2977 16.5171 20.2977 17.2652 20.7586 17.7273C21.2207 18.1894 21.9688 18.1894 22.4297 17.7273L25.7731 14.3851C26.234 13.9231 26.234 13.175 25.7731 12.7129C25.311 12.252 24.5629 12.252 24.102 12.7129Z" fill="#EB9166"/>
<path fill-rule="evenodd" clip-rule="evenodd" d="M26 14.1818V13V15.3636C27.3071 15.3601 28.3601 14.3071 28.3636 13C28.3601 11.6929 27.3071 10.6399 26 10.6364C24.6929 10.6399 23.6399 11.6929 23.6364 13C23.6399 14.3071 24.6929 15.3601 26 15.3636V14.1818Z" fill="#EB9166"/>
<path fill-rule="evenodd" clip-rule="evenodd" d="M29.4793 15.4534C28.6461 16.8409 27.2149 17.5571 25.7435 17.5606L25.2625 17.5346C24.7721 17.4814 24.297 17.7391 24.0772 18.1799C23.9578 18.4174 23.9318 18.681 23.9803 18.9315H23.9791C24.0571 19.3582 24.0985 19.8179 24.0985 20.3036C24.1197 23.8656 21.8424 28.8375 17.6528 33.0058C16.4426 34.216 15.1698 35.269 13.884 36.153C13.6606 36.3066 13.4113 36.3787 13.1655 36.3799C12.8511 36.3775 12.5556 36.2641 12.3228 36.0324C12.0805 35.789 11.9671 35.4853 11.9659 35.1768C11.9706 34.7963 12.1314 34.4571 12.4646 34.2337C13.624 33.4643 14.8129 32.5023 15.9805 31.3347C17.8206 29.4946 19.1466 27.6061 20.0224 25.8546C20.8945 24.0996 21.3283 22.4923 21.3342 21.1203C21.3271 20.1488 21.1238 19.227 20.4384 18.5203C19.7316 17.8348 18.8098 17.6315 17.8384 17.6244C16.4663 17.6303 14.8602 18.0641 13.104 18.9363C11.3525 19.812 9.464 21.138 7.62391 22.9769C6.45627 24.1469 5.49427 25.3346 4.72491 26.4952C4.50155 26.8273 4.16236 26.988 3.78182 26.9927C3.47336 26.9915 3.16964 26.8781 2.92618 26.6358C2.69455 26.403 2.58109 26.1075 2.57873 25.7932C2.57991 25.5473 2.652 25.298 2.80564 25.0746C3.68964 23.7876 4.74382 22.516 5.95282 21.307C10.1223 17.1163 15.093 14.8389 18.655 14.8602C19.1384 14.8602 19.5945 14.9015 20.02 14.9783C20.2682 15.028 20.5305 15.0032 20.7705 14.8862C21.2184 14.6663 21.4784 14.1924 21.424 13.6961L21.398 13.2151C21.4015 11.7437 22.1177 10.3125 23.5052 9.47934L33.3474 3.5738L35.3848 5.61125L29.4793 15.4534ZM37.7083 4.59252L34.3661 1.25034C33.982 0.866251 33.3875 0.792978 32.9219 1.07189L22.2891 7.45252C20.3805 8.59652 19.2837 10.5158 19.0769 12.5154C18.9363 12.5095 18.798 12.4965 18.655 12.4965C14.157 12.519 8.81754 15.1202 4.28173 19.6347C2.97109 20.9453 1.82591 22.3269 0.856818 23.7356C0.430182 24.3561 0.215091 25.077 0.215091 25.7932C0.213909 26.7032 0.566091 27.6203 1.25509 28.3081C1.95355 29.0077 2.87655 29.3575 3.78182 29.3563C4.88682 29.3611 6.01427 28.8281 6.69382 27.8023C7.37336 26.7776 8.23609 25.7093 9.29618 24.6492C10.9637 22.9804 12.6549 21.8022 14.1594 21.0517C15.6603 20.2977 16.9886 19.9833 17.8384 19.9881C18.4553 19.9822 18.7566 20.1606 18.7673 20.1925C18.798 20.202 18.9765 20.5045 18.9705 21.1203C18.9753 21.97 18.6609 23.2983 17.9069 24.7993C17.1565 26.3037 15.9782 27.9949 14.3095 29.6624C13.2494 30.7237 12.181 31.5853 11.1564 32.2648C10.1305 32.9443 9.59755 34.0718 9.60227 35.1768C9.60109 36.0821 9.95091 37.0051 10.6505 37.7035C11.3384 38.3925 12.2555 38.7447 13.1655 38.7435C13.8816 38.7435 14.6014 38.5284 15.223 38.1018C16.6317 37.1327 18.0133 35.9875 19.3239 34.6769C23.8385 30.1411 26.4396 24.8016 26.4621 20.3036C26.4621 20.1606 26.4491 20.0223 26.4432 19.8817C28.4428 19.6749 30.3621 18.5793 31.5061 16.6695L37.8867 6.03671C38.1656 5.57107 38.0924 4.97661 37.7083 4.59252Z" fill="#745747"/>
</svg>
