<svg width="41" height="37" viewBox="0 0 41 37" fill="none" xmlns="http://www.w3.org/2000/svg">
<path fill-rule="evenodd" clip-rule="evenodd" d="M30.7319 11.8616L29.8793 11.0564C29.6454 11.2773 29.3427 11.3855 29.0268 11.3867C28.7108 11.3855 28.4082 11.2773 28.1742 11.0564C27.9403 10.8354 27.8257 10.5484 27.8233 10.2512C27.8257 9.95279 27.9403 9.66693 28.1742 9.44599C28.4082 9.22504 28.712 9.11571 29.0268 9.11457C29.3427 9.11571 29.6454 9.22504 29.8793 9.44599C30.1133 9.66693 30.229 9.95279 30.2303 10.2512C30.229 10.5484 30.1133 10.8354 29.8793 11.0564L30.7319 11.8616L31.5857 12.6668C32.2887 12.0017 32.6432 11.1202 32.642 10.2512C32.6432 9.38107 32.2899 8.49957 31.5857 7.8356C30.8814 7.16935 29.9481 6.83566 29.0268 6.83679C28.1067 6.83566 27.1733 7.16935 26.4691 7.8356C25.7649 8.49957 25.4115 9.38107 25.4128 10.2512C25.4115 11.1202 25.7649 12.0017 26.4691 12.6668C27.1721 13.3319 28.1055 13.6656 29.0268 13.6644C29.9481 13.6656 30.8814 13.3319 31.5857 12.6668L30.7319 11.8616Z" fill="#EB9166"/>
<path fill-rule="evenodd" clip-rule="evenodd" d="M22.0592 5.28104L26.4691 9.44595L27.3217 8.64076L26.4691 7.83443C25.7649 8.49954 25.4116 9.38104 25.4128 10.2511C25.4116 11.1201 25.7649 12.0016 26.4691 12.6667C27.1733 13.3318 28.1067 13.6655 29.0268 13.6644C29.9481 13.6655 30.8814 13.3318 31.5845 12.6667L30.7319 11.8615L29.8793 12.6667L34.2893 16.8316C34.7608 17.277 35.5241 17.277 35.9944 16.8316C36.4659 16.3875 36.4659 15.6654 35.9944 15.2213L31.5857 11.0563C31.1142 10.611 30.3508 10.611 29.8806 11.0563C29.6454 11.2773 29.3427 11.3855 29.0268 11.3866C28.712 11.3855 28.4082 11.2773 28.1742 11.0563C27.9403 10.8354 27.8257 10.5495 27.8233 10.2511C27.8257 9.95276 27.9403 9.6669 28.1742 9.44595C28.3985 9.23412 28.5276 8.94029 28.5276 8.64076C28.5276 8.34009 28.3985 8.0474 28.1742 7.83557L23.7643 3.67065C23.294 3.22534 22.5307 3.22534 22.0592 3.67065C21.5877 4.11482 21.5889 4.83573 22.0592 5.28104Z" fill="#EB9166"/>
<path fill-rule="evenodd" clip-rule="evenodd" d="M11.0917 22.3097L14.514 19.0992C14.9867 18.6562 14.9891 17.9341 14.52 17.4888C14.051 17.0424 13.2876 17.039 12.8149 17.4831L9.39263 20.6936C8.91993 21.1367 8.91751 21.8576 9.3866 22.304C9.85569 22.7505 10.619 22.7528 11.0917 22.3097Z" fill="#EB9166"/>
<path fill-rule="evenodd" clip-rule="evenodd" d="M8.08787 31.5552L15.4269 24.6239C15.8984 24.1798 15.8984 23.4589 15.4269 23.0135C14.9566 22.5694 14.192 22.5694 13.7217 23.0135L6.38275 29.9448C5.91246 30.389 5.91246 31.111 6.38275 31.5552C6.85425 32.0005 7.61757 32.0005 8.08787 31.5552Z" fill="#EB9166"/>
<path fill-rule="evenodd" clip-rule="evenodd" d="M34.9863 17.5013L35.7954 18.2655C33.8214 19.7563 31.4277 20.4954 29.0172 20.4966C27.6642 20.4966 26.3099 20.2631 25.0317 19.8007C24.5867 19.6401 24.0875 19.7392 23.7499 20.057L9.78574 33.177C9.08392 33.8307 8.16021 34.1598 7.22324 34.161C6.28748 34.1598 5.36618 33.8318 4.66074 33.1758C3.96736 32.5176 3.61886 31.6896 3.61645 30.8343L3.61765 30.7808V30.7272L3.61645 30.6669C3.61765 29.8378 3.96615 29.0018 4.66315 28.3435L11.1002 22.3108C11.3281 22.0956 11.4559 21.8086 11.4559 21.5045C11.4571 21.2004 11.3305 20.9123 11.1026 20.697L6.01374 15.8909C5.77618 15.6654 5.66404 15.3841 5.66162 15.0869C5.66283 14.793 5.77739 14.5015 6.02098 14.2623C6.25854 14.0414 6.55398 13.9354 6.86148 13.9343C7.17139 13.9354 7.47045 14.0425 7.70921 14.2669L12.7956 19.0935C13.2659 19.5399 14.0244 19.5422 14.4983 19.1003L18.6466 15.2281C18.9878 14.9092 19.0976 14.4263 18.9215 14.0038C18.4259 12.8068 18.1775 11.5324 18.1775 10.2568C18.1787 7.98133 18.9697 5.71153 20.5507 3.84489L21.3598 4.60908C21.5841 4.82092 21.8952 4.94278 22.2124 4.94278C22.5295 4.94278 22.8406 4.82092 23.0649 4.60908C24.7146 3.05222 26.8647 2.27892 29.0256 2.27778C31.1877 2.27892 33.3378 3.05222 34.9863 4.60908C36.6468 6.16822 37.4716 8.20342 37.4728 10.25C37.4716 12.2954 36.6468 14.3318 34.9887 15.8886C34.7608 16.1028 34.6342 16.3898 34.6329 16.695C34.6329 16.9991 34.7584 17.2861 34.9863 17.5013ZM36.689 2.99528C34.5775 1.00108 31.7967 -0.0011376 29.0256 1.29224e-06C26.6331 -0.0011376 24.2346 0.750529 22.263 2.2402L21.3526 1.38147C20.8823 0.936168 20.1189 0.936168 19.6474 1.38147C17.0572 3.82667 15.7645 7.05086 15.7657 10.2568C15.7657 11.5586 15.9912 12.8581 16.4169 14.1074L13.6578 16.6824L9.41674 12.6576C8.71251 11.9925 7.78157 11.6554 6.86148 11.6565C5.94139 11.6554 5.01045 11.9925 4.30862 12.6565L4.29777 12.6667C3.60439 13.3375 3.24865 14.2156 3.24986 15.0869C3.24865 15.9581 3.60559 16.8385 4.30862 17.5013L8.54127 21.4988L2.96165 26.7297C1.81727 27.8083 1.20468 29.2284 1.20468 30.6669L1.20589 30.7546L1.20468 30.8343C1.20348 32.2886 1.81727 33.7145 2.95804 34.7896L2.96407 34.7942C4.1398 35.8909 5.68815 36.4399 7.22324 36.4388C8.75833 36.4399 10.3067 35.8909 11.4836 34.7942L24.9256 22.1639C26.2557 22.5625 27.634 22.7744 29.0172 22.7744C32.4081 22.7766 35.8147 21.5649 38.4037 19.1185C38.6317 18.9033 38.7571 18.6174 38.7571 18.3133C38.7571 18.0093 38.6317 17.7234 38.4037 17.5081L37.4969 16.6506C39.0851 14.7873 39.8858 12.5153 39.8846 10.25C39.8858 7.626 38.8174 4.99175 36.689 2.99528Z" fill="#745747"/>
</svg>
