<svg width="39" height="36" viewBox="0 0 39 36" fill="none" xmlns="http://www.w3.org/2000/svg">
<path fill-rule="evenodd" clip-rule="evenodd" d="M26 13V3.54547C26 2.8931 25.4705 2.36365 24.8182 2.36365C24.1658 2.36365 23.6364 2.8931 23.6364 3.54547V13C23.6364 13.6524 24.1658 14.1818 24.8182 14.1818C25.4705 14.1818 26 13.6524 26 13Z" fill="#EB9166"/>
<path fill-rule="evenodd" clip-rule="evenodd" d="M5.90911 16.5454H15.3637C16.016 16.5454 16.5455 16.0159 16.5455 15.3636C16.5455 14.7112 16.016 14.1818 15.3637 14.1818H5.90911C5.25675 14.1818 4.72729 14.7112 4.72729 15.3636C4.72729 16.0159 5.25675 16.5454 5.90911 16.5454Z" fill="#EB9166"/>
<path fill-rule="evenodd" clip-rule="evenodd" d="M13 26H3.54547C2.8931 26 2.36365 26.5295 2.36365 27.1818C2.36365 27.8342 2.8931 28.3636 3.54547 28.3636H13C13.6524 28.3636 14.1818 27.8342 14.1818 27.1818C14.1818 26.5295 13.6524 26 13 26Z" fill="#EB9166"/>
<path fill-rule="evenodd" clip-rule="evenodd" d="M18.9091 2.36358V14.1818C18.9091 14.8341 19.4386 15.3636 20.0909 15.3636C20.7433 15.3636 21.2728 14.8341 21.2728 14.1818V2.36358C21.2728 1.71122 20.7433 1.18176 20.0909 1.18176C19.4386 1.18176 18.9091 1.71122 18.9091 2.36358Z" fill="#EB9166"/>
<path fill-rule="evenodd" clip-rule="evenodd" d="M28.3636 10.6364C28.3625 11.2887 27.8342 11.817 27.1818 11.8182H24.8182C24.5074 11.8182 24.2025 11.9446 23.9826 12.1645C23.7628 12.3843 23.6364 12.6892 23.6364 13C23.6352 13.6524 23.1069 14.1806 22.4545 14.1818H15.3636C14.7999 14.1818 14.3154 14.5789 14.2055 15.132L11.8418 26.9502C11.7721 27.2976 11.8619 27.6569 12.0865 27.9311C12.311 28.2053 12.6455 28.3636 13 28.3636H16.5455V33.0909H2.36364V28.3636H3.54545C4.10918 28.3636 4.59373 27.9665 4.70482 27.4135L7.06845 15.5953C7.13818 15.2478 7.04836 14.8885 6.82264 14.6144C6.59809 14.3402 6.26364 14.1818 5.90909 14.1818H3.54545C2.89309 14.1806 2.36482 13.6524 2.36364 13V3.54545C2.36482 2.89309 2.89309 2.36482 3.54545 2.36364H22.4545C23.1069 2.36482 23.6352 2.89309 23.6364 3.54545C23.6364 3.85627 23.7628 4.16118 23.9826 4.381C24.2025 4.60082 24.5074 4.72727 24.8182 4.72727H27.1818C27.8342 4.72845 28.3625 5.25673 28.3636 5.90909V10.6364ZM37.8182 7.09091H30.7273V5.90909C30.7261 3.95082 29.1401 2.36482 27.1818 2.36364H25.7825C25.2945 0.989182 23.9968 0 22.4545 0H3.54545C1.58718 0.00118182 0.00118182 1.58718 0 3.54545V13C0.00118182 14.9583 1.58718 16.5443 3.54545 16.5455H4.46727L2.57636 26H1.18182C0.871 26 0.566091 26.1265 0.346273 26.3463C0.126455 26.5661 0 26.871 0 27.1818V34.2727C0 34.5835 0.126455 34.8885 0.346273 35.1083C0.566091 35.3281 0.871 35.4545 1.18182 35.4545H17.7273C18.0381 35.4545 18.343 35.3281 18.5628 35.1083C18.7826 34.8885 18.9091 34.5835 18.9091 34.2727V27.1818C18.9091 26.871 18.7826 26.5661 18.5628 26.3463C18.343 26.1265 18.0381 26 17.7273 26H14.4418L16.3327 16.5455H22.4545C23.9968 16.5443 25.2945 15.5551 25.7825 14.1818H27.1818C29.1401 14.1806 30.7261 12.5946 30.7273 10.6364V9.45455H37.8182C38.4705 9.45455 39 8.92509 39 8.27273C39 7.62036 38.4705 7.09091 37.8182 7.09091Z" fill="#745747"/>
</svg>
