<svg width="20" height="20" viewBox="0 0 20 20" fill="none" xmlns="http://www.w3.org/2000/svg">
<path fill-rule="evenodd" clip-rule="evenodd" d="M17.8033 0.732292L19.2678 2.19675C20.244 3.17303 20.244 4.75596 19.2678 5.73229L5.5015 19.4986L1.04119 19.9942C0.444158 20.0605 -0.0604515 19.556 0.00587659 18.9589L0.501463 14.4985L14.2678 0.732292C15.2441 -0.244036 16.827 -0.243997 17.8033 0.732292ZM6.79685 16.4354L15.5492 7.68307L12.3169 4.45085L3.56463 13.2032H4.92185V15.0782H6.79685V16.4354ZM4.9276 18.3046L2.6231 18.5607L1.43931 17.3769L1.69537 15.0724L2.47088 14.2969H3.8281V16.1719H5.7031V17.5291L4.9276 18.3046ZM16.433 6.79921L18.3838 4.84839C18.8724 4.35979 18.8724 3.56913 18.3838 3.08061L16.9194 1.61616C16.4308 1.1276 15.6401 1.12768 15.1516 1.61616L13.2008 3.56698L16.433 6.79921Z" fill="#E2474B"/>
</svg>
