<svg width="20" height="22" viewBox="0 0 20 22" fill="none" xmlns="http://www.w3.org/2000/svg">
<path fill-rule="evenodd" clip-rule="evenodd" d="M14.6667 2.66667L13.2667 0.8C12.8875 0.295833 12.2958 0 11.6667 0H8.33333C7.70417 0 7.1125 0.295833 6.73333 0.8L5.33333 2.66667H1C0.445833 2.66667 0 3.1125 0 3.66667V3.75C0 3.8875 0.1125 4 0.25 4H1.12083L2.50417 19.5125C2.59583 20.5417 3.45833 21.3333 4.49583 21.3333H15.5042C16.5417 21.3333 17.4042 20.5417 17.4958 19.5125L18.8792 4H19.75C19.8875 4 20 3.8875 20 3.75V3.66667C20 3.1125 19.5542 2.66667 19 2.66667H14.6667ZM8.33333 1.33333H11.6667C11.875 1.33333 12.075 1.43333 12.2 1.6L13 2.66667H7L7.8 1.6C7.925 1.43333 8.125 1.33333 8.33333 1.33333ZM15.5042 20C15.85 20 16.1375 19.7375 16.1667 19.3917L17.5417 4H2.45833L3.83333 19.3917C3.8625 19.7375 4.15 20 4.49583 20H15.5042Z" fill="#E2474B"/>
</svg>
