<svg width="21" height="20" viewBox="0 0 21 20" fill="none" xmlns="http://www.w3.org/2000/svg">
<path fill-rule="evenodd" clip-rule="evenodd" d="M18.3251 9.29301L13.2863 4.29301C12.8923 3.90201 12.2554 3.90201 11.8614 4.29301C11.4673 4.68401 11.4673 5.31601 11.8614 5.70701L15.1799 9.00001H3.50409C2.9468 9.00001 2.49634 9.44801 2.49634 10C2.49634 10.552 2.9468 11 3.50409 11H15.1799L11.8614 14.293C11.4673 14.684 11.4673 15.316 11.8614 15.707C12.0579 15.902 12.3159 16 12.5739 16C12.8318 16 13.0898 15.902 13.2863 15.707L18.3251 10.707C18.7191 10.316 18.7191 9.68401 18.3251 9.29301Z" fill="#31373D"/>
<mask id="mask0" mask-type="alpha" maskUnits="userSpaceOnUse" x="2" y="3" width="17" height="13">
<path fill-rule="evenodd" clip-rule="evenodd" d="M18.3251 9.29301L13.2863 4.29301C12.8923 3.90201 12.2554 3.90201 11.8614 4.29301C11.4673 4.68401 11.4673 5.31601 11.8614 5.70701L15.1799 9.00001H3.50409C2.9468 9.00001 2.49634 9.44801 2.49634 10C2.49634 10.552 2.9468 11 3.50409 11H15.1799L11.8614 14.293C11.4673 14.684 11.4673 15.316 11.8614 15.707C12.0579 15.902 12.3159 16 12.5739 16C12.8318 16 13.0898 15.902 13.2863 15.707L18.3251 10.707C18.7191 10.316 18.7191 9.68401 18.3251 9.29301Z" fill="white"/>
</mask>
<g mask="url(#mask0)">
<rect width="21.1628" height="21" transform="translate(0.480713)" fill="#637381"/>
</g>
</svg>
